<?xml version="1.0" standalone="no"?>
<!DOCTYPE svg PUBLIC "-//W3C//DTD SVG 20010904//EN"
 "http://www.w3.org/TR/2001/REC-SVG-20010904/DTD/svg10.dtd">
<svg version="1.0" xmlns="http://www.w3.org/2000/svg"
 width="2084.000000pt" height="2084.000000pt" viewBox="0 0 2084.000000 2084.000000"
 preserveAspectRatio="xMidYMid meet">

<g transform="translate(0.000000,2084.000000) scale(0.100000,-0.100000)"
fill="#000000" stroke="none">
<path d="M7687 13459 c-257 -35 -479 -191 -591 -415 -47 -95 -66 -171 -73
-294 -20 -360 206 -670 563 -772 106 -30 341 -32 448 -4 155 41 277 107 367
199 l49 50 0 223 0 224 -161 0 -162 0 8 -159 7 -158 -38 -31 c-85 -70 -294
-104 -420 -67 -202 58 -324 227 -324 450 0 313 263 526 555 449 93 -24 159
-68 230 -156 l30 -37 125 69 c69 38 129 71 134 73 17 6 -48 102 -115 169 -76
75 -203 144 -320 172 -84 20 -225 27 -312 15z"/>
<path d="M1840 12711 l0 -731 343 0 c365 0 474 9 594 50 130 45 220 126 259
232 20 53 22 189 4 243 -29 88 -103 160 -192 187 l-38 11 50 29 c68 39 118 91
149 157 22 48 26 69 26 151 0 84 -3 102 -28 152 -49 101 -149 172 -308 219
-70 21 -97 23 -466 27 l-393 4 0 -731z m774 439 c70 -35 91 -68 91 -140 0
-138 -98 -184 -385 -178 l-145 3 -3 173 -2 174 197 -4 c188 -3 201 -4 247 -28z
m29 -609 c64 -31 84 -72 79 -163 -3 -39 -55 -94 -110 -115 -40 -15 -78 -18
-242 -18 l-195 0 -3 163 -3 164 213 -4 c200 -3 216 -4 261 -27z"/>
<path d="M3320 12711 l0 -731 165 0 165 0 2 233 3 232 95 0 c201 -1 256 -43
388 -302 l83 -163 180 0 180 0 -95 188 c-114 225 -181 331 -236 371 l-40 29
65 31 c81 37 163 114 198 183 57 114 58 278 2 393 -34 71 -115 148 -199 189
-132 65 -159 69 -578 73 l-378 4 0 -730z m745 404 c68 -34 101 -75 110 -139
10 -64 -11 -124 -59 -172 -61 -61 -114 -74 -308 -74 l-158 0 0 203 c0 112 3
207 8 211 4 5 84 6 177 4 166 -3 172 -4 230 -33z"/>
<path d="M4820 12710 l0 -730 165 0 165 0 0 730 0 730 -165 0 -165 0 0 -730z"/>
<path d="M5500 12711 l0 -731 328 0 c413 0 511 14 672 95 246 123 375 322 387
596 14 310 -118 545 -382 675 -169 83 -197 87 -627 92 l-378 3 0 -730z m668
429 c181 -30 312 -135 363 -292 28 -88 24 -223 -10 -311 -31 -80 -121 -174
-203 -214 -94 -46 -156 -57 -328 -57 l-155 -1 -3 430 c-1 237 0 436 3 443 6
15 240 17 333 2z"/>
<path d="M8863 13430 c-68 -16 -120 -57 -150 -117 l-28 -58 -3 -524 c-3 -599
-3 -603 72 -677 72 -72 85 -74 593 -74 l443 0 0 140 0 140 -387 2 -388 3 -3
153 -3 152 361 0 360 0 0 140 0 140 -357 2 -358 3 0 150 0 150 383 3 382 2 0
140 0 140 -442 -1 c-244 -1 -457 -4 -475 -9z"/>
<path d="M2370 11396 c-103 -23 -188 -84 -229 -164 -13 -27 -363 -1100 -435
-1339 l-7 -23 173 0 174 0 16 53 c9 28 31 98 48 155 l31 102 316 -2 317 -3 44
-152 45 -153 174 0 c95 0 173 3 173 6 0 24 -428 1330 -448 1367 -43 81 -127
136 -237 156 -70 13 -84 13 -155 -3z m124 -308 c13 -20 186 -587 186 -609 0
-5 -100 -9 -225 -9 -124 0 -225 2 -225 6 0 17 184 611 192 622 17 20 56 14 72
-10z"/>
<path d="M6554 11396 c-60 -19 -110 -61 -136 -114 l-23 -47 -3 -682 -3 -683
166 0 165 0 2 551 3 552 309 -512 c169 -282 319 -525 332 -540 41 -49 108 -74
199 -75 100 -1 164 27 210 93 l30 43 3 699 2 700 -157 -3 -158 -3 -5 -546 -5
-546 -319 524 c-346 569 -347 571 -447 592 -64 14 -113 13 -165 -3z"/>
<path d="M5170 11386 c-394 -88 -652 -421 -626 -811 22 -344 247 -615 587
-707 71 -19 108 -22 234 -22 133 1 160 4 238 28 172 52 304 138 405 263 243
301 222 752 -48 1023 -113 114 -258 193 -412 224 -92 19 -297 20 -378 2z m280
-301 c78 -10 181 -67 244 -136 99 -106 130 -196 124 -353 -3 -91 -7 -108 -40
-177 -96 -204 -318 -310 -533 -254 -269 70 -418 351 -326 616 55 162 207 287
372 308 64 8 73 7 159 -4z"/>
<path d="M8660 11386 c-398 -92 -653 -422 -626 -811 23 -338 247 -610 582
-707 69 -20 100 -23 244 -22 149 1 174 3 253 27 152 47 280 121 359 210 l37
42 1 228 0 227 -165 0 -165 0 -2 -172 -3 -172 -33 -23 c-69 -46 -141 -66 -258
-71 -118 -5 -185 8 -268 50 -52 26 -132 102 -162 153 -88 151 -95 356 -16 511
37 73 133 166 205 199 192 88 425 35 541 -124 l36 -49 140 75 141 75 -22 37
c-85 146 -212 243 -394 301 -57 18 -98 23 -220 26 -98 2 -169 -1 -205 -10z"/>
<path d="M3420 10737 c0 -706 0 -706 60 -779 16 -20 51 -47 77 -60 48 -23 50
-23 491 -26 l442 -3 0 151 0 150 -365 0 -365 0 0 605 0 605 -170 0 -170 0 0
-643z"/>
<path d="M1998 9196 c-63 -17 -111 -56 -139 -113 l-24 -48 -3 -642 -2 -643
165 0 165 0 0 245 0 245 355 0 355 0 0 150 0 150 -355 0 -355 0 0 190 0 190
380 0 380 0 0 145 0 145 -437 -1 c-319 0 -451 -4 -485 -13z"/>
<path d="M3100 8740 c0 -523 4 -565 64 -695 67 -143 167 -232 319 -281 110
-36 339 -45 468 -20 229 46 378 185 441 413 21 74 22 101 26 566 l3 487 -165
0 -165 0 -3 -467 c-3 -465 -3 -468 -27 -527 -49 -122 -132 -176 -282 -184
-158 -8 -265 49 -320 171 -24 52 -24 52 -27 530 l-3 477 -164 0 -165 0 0 -470z"/>
<path d="M4550 9065 l0 -145 225 0 225 0 0 -585 0 -585 165 0 165 0 0 585 0
585 225 0 225 0 0 145 0 145 -615 0 -615 0 0 -145z"/>
<path d="M5930 8740 c0 -523 4 -565 64 -695 67 -143 167 -232 319 -281 110
-36 339 -45 468 -20 229 46 378 185 441 413 21 74 22 101 26 566 l3 487 -165
0 -165 0 -3 -467 c-3 -465 -3 -468 -27 -527 -49 -122 -132 -176 -282 -184
-158 -8 -265 49 -320 171 -24 52 -24 52 -27 530 l-3 477 -164 0 -165 0 0 -470z"/>
<path d="M7560 8481 l0 -731 165 0 165 0 2 233 3 232 95 0 c201 -1 256 -43
388 -302 l83 -163 180 0 180 0 -95 188 c-114 225 -181 331 -236 371 l-40 29
65 31 c81 37 163 114 198 183 57 114 58 278 2 393 -34 71 -115 148 -199 189
-132 65 -159 69 -578 73 l-378 4 0 -730z m745 404 c68 -34 101 -75 110 -139
10 -64 -11 -124 -59 -172 -61 -61 -114 -74 -308 -74 l-158 0 0 203 c0 112 3
207 8 211 4 5 84 6 177 4 166 -3 172 -4 230 -33z"/>
<path d="M9223 9200 c-68 -16 -120 -57 -150 -117 l-28 -58 -3 -524 c-3 -599
-3 -603 72 -677 72 -72 85 -74 593 -74 l443 0 0 140 0 140 -387 2 -388 3 -3
153 -3 152 361 0 360 0 0 140 0 140 -357 2 -358 3 0 150 0 150 383 3 382 2 0
140 0 140 -442 -1 c-244 -1 -457 -4 -475 -9z"/>
</g>
</svg>
