<?xml version="1.0" encoding="UTF-8"?>
<svg id="Layer_1" data-name="Layer 1" xmlns="http://www.w3.org/2000/svg" viewBox="0 0 421.29 162.15">
  <defs>
    <style>
      .cls-1 {
        fill: #fff;
        font-family: ChillaxVariable-Semibold, 'Chillax Variable';
        font-variation-settings: 'wght' 600;
        font-weight: 600;
      }

      .cls-2 {
        letter-spacing: -.02em;
      }

      .cls-2, .cls-3 {
        font-size: 52.1px;
      }

      .cls-3 {
        letter-spacing: -.03em;
      }

      .cls-4 {
        font-size: 53.76px;
        letter-spacing: -.03em;
      }

      .cls-5 {
        fill: #fbb116;
      }
    </style>
  </defs>
  <text class="cls-1" transform="translate(0 43.63) scale(1.04 1)"><tspan class="cls-2"><tspan x="0" y="0">BRIDGE</tspan></tspan><tspan class="cls-4"><tspan x="0" y="50.79">ALONG</tspan></tspan><tspan class="cls-3"><tspan x="0" y="101.59">FUTURE</tspan></tspan></text>
  <g>
    <path class="cls-5" d="M219.68,61.85c3.53-.88,6.88-2.32,10.31-3.5,23.29-7.96,48.1-14.35,72.72-16.54,37.42-3.33,74.94,5.1,110.01,17.24,2.85.99,5.63,2.19,8.56,2.92l-7.75,25.04-.32.1c-1.87-.47-3.92-1.54-5.86-1.5-13.26.25-17.72,17.72-19.38,28.16-1.66,10.43-1.76,21.09-.95,31.61h-31.81c.38-9.94-.32-20.03-1.88-29.86-2.77-17.4-10.42-44.54-31.96-45.51s-30.44,26.06-33.47,43.43c-1.84,10.53-2.5,21.27-2.25,31.94h-31.7c.02-.91-.03-1.83,0-2.74.2-7.81.54-14.97-.23-22.83-1.11-11.36-5.33-34.29-20.33-34.32-1.74,0-3.84,1.31-5.51,1.5-.19.02-.41.1-.55-.09l-7.63-24.81v-.23ZM260,139.66h19.64c.13,0,.17-.28.18-.4.24-2.04,0-4.81.11-6.99,1.23-24.04,9.19-69.24,41.32-68.09,25.78.92,34.82,30.67,38.02,51.69,1.2,7.86,1.85,15.84,1.77,23.8h19.81c-.02-.48.03-.98,0-1.46-.2-4.14-.1-8.55.11-12.7.78-15.73,5.1-44.38,25.35-45.6.6-.04,3.1.16,3.39-.23l4.24-13.97c-21.7-7.78-44.13-14.01-67.07-17-17.57-2.29-34.84-2.37-52.41-.12-23.09,2.96-45.63,9.28-67.5,16.99l4.27,14.32c19.56-1.5,25.83,20.33,27.82,35.73.9,6.97,1.1,13.93.94,20.95-.02,1.03.03,2.06,0,3.09Z"/>
    <path class="cls-5" d="M375.02,8.62c10.79.99,17.36,13.32,11.51,22.75-7.25,11.69-26.27,8.29-28.38-5.6-1.27-8.36,5.24-16.38,13.6-17.15.84-.08,2.42-.08,3.26,0ZM372.44,14.48c-6.89.53-10.95,8.12-7.11,14.03,4.05,6.24,14.36,5.31,17.01-1.68s-3.11-12.86-9.9-12.34Z"/>
    <path class="cls-5" d="M266.85,8.77c11.82-.91,20.64,11.4,14.73,22.06-6.02,10.84-22.64,10.16-27.62-1.2-4.23-9.64,2.65-20.07,12.9-20.86ZM266.85,14.59c-3.95.4-8,4.02-8.36,8.06-.67,7.45,7.08,12.2,13.71,9.28,9.59-4.21,5.59-18.46-5.35-17.34Z"/>
    <path class="cls-5" d="M260,139.66c.02-1.03-.03-2.06,0-3.09.16-7.02-.04-13.97-.94-20.95-1.99-15.4-8.26-37.23-27.82-35.73l-4.27-14.32c21.87-7.71,44.41-14.03,67.5-16.99,17.57-2.25,34.84-2.17,52.41.12,22.95,2.99,45.37,9.23,67.07,17l-4.24,13.97c-.29.38-2.78.19-3.39.23-20.25,1.22-24.57,29.87-25.35,45.6-.21,4.14-.31,8.56-.11,12.7.02.48-.03.98,0,1.46h-19.81c.09-7.96-.57-15.94-1.77-23.8-3.2-21.02-12.24-50.77-38.02-51.69-32.12-1.14-40.08,44.05-41.32,68.09-.11,2.18.13,4.95-.11,6.99-.01.12-.05.4-.18.4h-19.64Z"/>
    <path class="cls-5" d="M372.44,14.48c6.8-.52,12.45,5.62,9.9,12.34s-12.96,7.92-17.01,1.68c-3.84-5.91.22-13.5,7.11-14.03Z"/>
    <path class="cls-5" d="M266.85,14.59c10.93-1.11,14.94,13.13,5.35,17.34-6.64,2.92-14.38-1.83-13.71-9.28.36-4.04,4.41-7.66,8.36-8.06Z"/>
  </g>
</svg>